<svg width="414" height="66" viewBox="0 0 414 66" fill="none" xmlns="http://www.w3.org/2000/svg">
<g id="Polaris Office/&#234;&#184;&#176;&#235;&#179;&#184;/&#234;&#176;&#128;&#235;&#161;&#156;">
<g id="Group">
<g id="logo">
<path id="Shape" fill-rule="evenodd" clip-rule="evenodd" d="M282.75 37.7519C282.75 28.444 286.943 23.3129 294.546 23.3129C302.149 23.3129 306.341 28.444 306.341 37.7519V43.2741C306.341 52.582 302.149 57.7131 294.546 57.7131C286.943 57.7131 282.75 52.582 282.75 43.2741V37.7519ZM294.546 55.1475C300.584 55.1475 303.635 51.1115 303.635 43.2897V37.7362C303.635 29.8675 300.522 25.8784 294.546 25.8784C288.57 25.8784 285.441 29.9145 285.441 37.7362V43.2897C285.441 51.1584 288.507 55.1475 294.546 55.1475Z" fill="#0046B9"/>
<path id="Path" fill-rule="evenodd" clip-rule="evenodd" d="M388 23.8135C385.271 23.4709 382.523 23.3037 379.772 23.3129C372.685 23.3129 368.462 28.6473 368.462 37.5642V43.4618C368.462 52.3786 372.685 57.6974 379.772 57.6974C382.523 57.7144 385.272 57.5472 388 57.1968C388.201 57.1981 388.393 57.1133 388.528 56.9638C388.663 56.8143 388.727 56.6145 388.704 56.4147V55.3509C388.723 55.1771 388.664 55.0039 388.544 54.8773C388.423 54.7508 388.253 54.6837 388.079 54.6939H388C385.29 55.0046 382.563 55.1457 379.834 55.1162C374.281 55.1162 371.23 50.9707 371.23 43.4461V37.5485C371.23 30.0083 374.281 25.8628 379.834 25.8628C382.563 25.8381 385.29 25.9844 388 26.3008H388.141C388.316 26.311 388.486 26.2439 388.606 26.1173C388.727 25.9908 388.786 25.8175 388.767 25.6438V24.5644C388.771 24.3611 388.692 24.1651 388.546 24.0228C388.401 23.8805 388.203 23.8048 388 23.8135Z" fill="#0046B9"/>
<path id="Path_2" fill-rule="evenodd" clip-rule="evenodd" d="M329.478 23.5788H316.963C315.562 23.4315 314.169 23.9212 313.169 24.9125C312.168 25.9039 311.666 27.2922 311.801 28.6943V56.6024C311.809 57.0827 312.196 57.4701 312.677 57.4784H313.631C314.115 57.4784 314.507 57.0862 314.507 56.6024V41.0527H328.367C328.599 41.0527 328.822 40.9604 328.987 40.7961C329.151 40.6318 329.243 40.409 329.243 40.1766V39.2224C329.235 38.7447 328.845 38.3619 328.367 38.362H314.507V28.663C314.455 27.9957 314.697 27.3389 315.168 26.8642C315.64 26.3894 316.295 26.1438 316.963 26.1913H329.478C329.956 26.1914 330.345 25.8086 330.354 25.3309V24.4079C330.329 23.9425 329.944 23.5781 329.478 23.5788Z" fill="#0046B9"/>
<path id="Path_3" fill-rule="evenodd" clip-rule="evenodd" d="M352.599 23.5788H340.084C338.683 23.4315 337.291 23.9212 336.29 24.9125C335.29 25.9039 334.787 27.2922 334.922 28.6943V56.6024C334.93 57.0827 335.318 57.4701 335.798 57.4784H336.752C337.236 57.4784 337.628 57.0862 337.628 56.6024V41.0527H351.488C351.721 41.0527 351.943 40.9604 352.108 40.7961C352.272 40.6318 352.364 40.409 352.364 40.1766V39.2224C352.356 38.7447 351.966 38.3619 351.488 38.362H337.628V28.663C337.576 27.9957 337.818 27.3389 338.29 26.8642C338.761 26.3894 339.417 26.1438 340.084 26.1913H352.599C353.074 26.1913 353.459 25.8061 353.459 25.3309V24.4079C353.443 23.945 353.062 23.5785 352.599 23.5788Z" fill="#0046B9"/>
<path id="Path_4" fill-rule="evenodd" clip-rule="evenodd" d="M399.248 26.1913H411.763C412.238 26.1913 412.623 25.8061 412.623 25.3309V24.4079C412.623 23.9327 412.238 23.5475 411.763 23.5475H399.248C397.847 23.4002 396.455 23.8899 395.454 24.8812C394.454 25.8726 393.951 27.2609 394.086 28.663V52.316C393.946 53.7206 394.446 55.1135 395.447 56.1085C396.449 57.1036 397.844 57.5952 399.248 57.4471H411.763C412.241 57.4386 412.623 57.0489 412.623 56.5711V55.6638C412.623 55.186 412.241 54.7963 411.763 54.7877H399.248C398.579 54.8347 397.923 54.5894 397.449 54.1153C396.975 53.6412 396.73 52.9849 396.776 52.316V41.0214H410.652C411.136 41.0214 411.528 40.6292 411.528 40.1453V39.2224C411.52 38.7447 411.13 38.3619 410.652 38.362H396.776V28.663C396.73 27.9941 396.975 27.3378 397.449 26.8637C397.923 26.3896 398.579 26.1443 399.248 26.1913Z" fill="#0046B9"/>
<path id="Path_5" fill-rule="evenodd" clip-rule="evenodd" d="M361.015 23.5788H360.045C359.57 23.5788 359.185 23.964 359.185 24.4392V56.6024C359.185 57.0802 359.568 57.4699 360.045 57.4784H361.015C361.493 57.4699 361.876 57.0802 361.876 56.6024V24.4079C361.859 23.945 361.478 23.5785 361.015 23.5788Z" fill="#0046B9"/>
<path id="Shape_2" fill-rule="evenodd" clip-rule="evenodd" d="M123.233 37.5485C123.233 27.9277 128.083 23.2347 135.607 23.2347C143.961 23.2347 147.934 28.7881 147.934 37.5485V43.4305C147.934 52.1127 144.008 57.7444 135.607 57.7444C127.707 57.7444 123.233 52.6602 123.233 43.4305V37.5485ZM135.607 54.0055C141.63 54.0055 143.695 49.6879 143.695 43.4305V37.5485C143.695 30.5715 140.989 26.9735 135.607 26.9735C130.226 26.9735 127.472 30.3994 127.472 37.5485V43.4305C127.472 50.5014 130.132 54.0055 135.607 54.0055Z" fill="#0046B9"/>
<path id="Path_6" fill-rule="evenodd" clip-rule="evenodd" d="M239.731 23.5788H236.477C236.235 23.5788 236.039 23.7749 236.039 24.0168V56.9935C236.039 57.2354 236.235 57.4315 236.477 57.4315H239.731C239.85 57.4357 239.965 57.3915 240.051 57.3089C240.136 57.2262 240.184 57.1124 240.184 56.9935V24.0012C240.18 23.885 240.13 23.7752 240.045 23.696C239.96 23.6167 239.847 23.5746 239.731 23.5788Z" fill="#0046B9"/>
<path id="Path_7" fill-rule="evenodd" clip-rule="evenodd" d="M172.291 53.5362H161.169C158.853 53.5362 157.305 51.659 157.305 49.0465V24.0168C157.305 23.7749 157.109 23.5788 156.867 23.5788H153.597C153.355 23.5788 153.159 23.7749 153.159 24.0168V48.8901C153.159 54.6 155.834 57.4315 160.871 57.4315H172.26C172.498 57.4234 172.69 57.2319 172.698 56.9935V54.0212C172.716 53.776 172.536 53.561 172.291 53.5362Z" fill="#0046B9"/>
<path id="Path_8" fill-rule="evenodd" clip-rule="evenodd" d="M259.848 39.0034C257.877 37.877 256.422 36.9541 255.656 36.5004C253.56 35.2333 250.712 33.4968 250.712 30.8687C250.712 28.7412 252.183 27.5523 255.609 26.9891C258.941 26.7777 262.285 27.0038 265.558 27.6618C265.871 27.6618 265.996 27.5053 265.996 27.1925V24.7521C265.996 24.4705 265.996 24.2984 265.558 24.2358C261.271 23.2192 256.822 23.0808 252.48 23.8291C249.083 24.4902 246.592 27.4095 246.473 30.8687C246.473 35.3584 249.899 37.6893 252.731 39.504C254.06 40.3487 256.532 41.8192 257.142 42.1947C260.787 44.416 263.024 45.9804 263.212 48.6242C263.424 50.981 261.848 53.1269 259.535 53.6301C256.813 54.5061 252.762 54.2558 247.771 53.6301C247.38 53.6301 247.255 53.724 247.255 54.0525V56.4303C247.255 56.884 247.412 56.9622 247.881 57.0404C250.467 57.4671 253.082 57.6972 255.703 57.7287C261.428 57.7287 267.342 55.476 267.342 48.6085C267.357 43.9154 263.18 40.9275 259.848 39.0034Z" fill="#0046B9"/>
<path id="Shape_3" fill-rule="evenodd" clip-rule="evenodd" d="M98.5945 23.5788H105.963C115.427 23.5788 119.885 25.9097 119.885 33.4812C119.885 41.0527 115.396 43.3836 106.01 43.3836H102.302V56.9935C102.302 57.2354 102.106 57.4315 101.864 57.4315H98.5945C98.3525 57.4315 98.1564 57.2354 98.1564 56.9935V24.0168C98.1564 23.7749 98.3525 23.5788 98.5945 23.5788ZM102.255 39.9263H105.869V39.9107C112.955 39.9107 115.693 38.5653 115.693 33.4655C115.693 28.3657 112.955 27.0204 105.869 27.0204H102.255V39.9263Z" fill="#0046B9"/>
<path id="Shape_4" fill-rule="evenodd" clip-rule="evenodd" d="M228.765 33.356C228.765 38.5966 226.637 41.2873 222.179 42.4293L230.141 56.7275C230.345 57.0717 230.235 57.4941 229.781 57.4941H226.465C226.137 57.5106 225.826 57.3492 225.651 57.0717L217.83 43.1489H214.889H211.494V56.9778C211.494 57.0968 211.446 57.2106 211.36 57.2932C211.275 57.3758 211.159 57.4201 211.04 57.4158H207.787C207.668 57.4201 207.552 57.3758 207.467 57.2932C207.381 57.2106 207.333 57.0968 207.333 56.9778V24.0012C207.333 23.8823 207.381 23.7684 207.467 23.6858C207.552 23.6032 207.668 23.5589 207.787 23.5632H214.889C224.337 23.5632 228.765 25.7846 228.765 33.356ZM211.494 39.6917H214.779C221.866 39.6917 224.619 38.4558 224.619 33.356C224.619 28.2562 221.881 27.0204 214.795 27.0204H211.494V39.6917Z" fill="#0046B9"/>
<path id="Shape_5" fill-rule="evenodd" clip-rule="evenodd" d="M189.155 23.4735C191.213 23.4735 193.049 24.7685 193.739 26.7075C193.739 26.7075 202.155 56.2895 202.264 56.7275C202.374 57.1655 202.28 57.4628 201.764 57.4628H198.635C198.501 57.4851 198.364 57.4505 198.257 57.3672C198.15 57.284 198.083 57.1598 198.072 57.0248C198.063 57.0021 197.954 56.601 197.767 55.9077C197.306 54.205 196.368 50.7404 195.256 46.7939H183.07C181.537 52.3317 180.254 57.0248 180.254 57.0248C180.238 57.158 180.17 57.2793 180.064 57.3617C179.958 57.444 179.824 57.4804 179.691 57.4628H176.562C176.061 57.4628 175.999 57.0248 176.061 56.7275C176.124 56.4303 184.571 26.7075 184.571 26.7075C185.261 24.7685 187.097 23.4735 189.155 23.4735ZM188.31 27.7087L184.055 43.1958H194.27C192.174 35.5305 190.015 27.7087 190.015 27.7087C189.859 27.1612 189.562 26.9422 189.155 26.9422C188.748 26.9422 188.467 27.1612 188.31 27.7087Z" fill="#0046B9"/>
</g>
<g id="po logo">
<path id="Shape_6" d="M13.0632 26.3415L0.725494 22.9173C0.120229 22.7487 -0.149589 23.0643 0.123875 23.6345L20.28 64.5807C20.6132 65.1733 21.2332 65.5554 21.9207 65.5919C21.2561 65.5763 20.6863 65.1206 20.5352 64.4838L13.0632 26.3415Z" fill="#F46060"/>
<path id="Shape_7" d="M21.6764 65.5633C21.1521 65.4549 20.7847 64.9888 20.8087 64.4623L23.0986 16.751L10.789 12.0621C10.2019 11.8362 9.82271 12.1482 9.95033 12.7578L20.5243 64.4838C20.6764 65.1115 21.2359 65.562 21.8916 65.5848C21.8193 65.5844 21.7473 65.5772 21.6764 65.5633Z" fill="#FFA52E"/>
<path id="Shape_8" d="M24.4257 4.44523C24.2078 4.2961 23.9217 4.28488 23.6925 4.41647C23.4632 4.54806 23.3325 4.79854 23.3573 5.05845L20.805 64.4623C20.781 64.9888 21.1484 65.4549 21.6728 65.5633C21.4349 65.5194 21.229 65.3739 21.1107 65.1662C20.9924 64.9585 20.974 64.7099 21.0602 64.4874L36.4984 10.4361L24.4257 4.44523Z" fill="#87CC25"/>
<path id="Shape_9" opacity="0.4" d="M20.8086 64.4623L22.3291 28.9348L12.7105 26.2595L20.5352 64.4838C20.6873 65.1115 21.2468 65.562 21.9025 65.5848C21.8266 65.5851 21.7509 65.5778 21.6764 65.5633C21.152 65.4549 20.7847 64.9888 20.8086 64.4623Z" fill="#F98526"/>
<path id="Shape_10" opacity="0.4" d="M33.3333 20.6688L22.8578 16.6703L20.8086 64.4623C20.7847 64.9888 21.152 65.4549 21.6764 65.5632C21.4385 65.5194 21.2326 65.3739 21.1144 65.1662C20.9961 64.9585 20.9776 64.7099 21.0639 64.4874L33.3333 20.6688Z" fill="#74B502"/>
<path id="Shape_11" d="M78.2469 22.096L40.1297 0.500509C39.8969 0.34669 39.6014 0.317003 39.3417 0.42133C39.082 0.525657 38.8922 0.750303 38.8354 1.02049L21.0639 64.5161C20.9776 64.7386 20.9961 64.9872 21.1144 65.1949C21.2326 65.4026 21.4385 65.5481 21.6764 65.5919C21.7509 65.6065 21.8266 65.6138 21.9025 65.6135L61.8792 65.5668C62.5554 65.5326 63.1533 65.124 63.4215 64.5125L78.8412 23.7385C79.0626 23.1217 78.8147 22.4367 78.2469 22.096Z" fill="#1D7FF9"/>
<path id="Shape_12" fill-rule="evenodd" clip-rule="evenodd" d="M72.9563 27.0234L43.0576 12.7363C42.9118 12.6682 42.7513 12.765 42.693 12.9551L42.0221 15.3578C41.962 15.5286 42.0301 15.7177 42.1862 15.8132L72.0593 29.2898C72.1432 29.3256 72.2562 29.2467 72.3109 29.1069L72.9891 27.3497C73.0657 27.2206 73.0402 27.0628 72.9563 27.0234ZM70.466 33.4783L40.6147 21.4828C40.536 21.4563 40.4495 21.4659 40.3788 21.509C40.3081 21.5521 40.2609 21.6241 40.2501 21.7052L39.6229 23.9931C39.5713 24.1544 39.6412 24.3292 39.7907 24.4127L69.6383 35.6587C69.7258 35.691 69.8352 35.6085 69.8899 35.4758L70.5389 33.7868C70.579 33.6505 70.5498 33.5142 70.466 33.4819V33.4783ZM68.0741 39.6859L38.2811 29.7847C38.2046 29.7678 38.1244 29.7824 38.059 29.825C37.9936 29.8677 37.9487 29.9347 37.9347 30.0106L37.3258 32.1623C37.2724 32.3165 37.3486 32.4852 37.5008 32.5496L67.2719 41.7658C67.3558 41.7945 67.4651 41.7121 67.5162 41.583L68.1433 39.9584C68.1798 39.8437 68.1579 39.7146 68.0741 39.6895V39.6859ZM65.7697 45.6568L36.0497 37.6813C35.8928 37.6527 35.7418 37.7534 35.7106 37.9072L35.1308 39.9692C35.1042 40.0395 35.1078 40.1175 35.1408 40.1851C35.1738 40.2528 35.2334 40.3043 35.3058 40.3278L64.993 47.6614C65.0805 47.6865 65.1863 47.6004 65.2337 47.4785L65.8389 45.915C65.8863 45.8038 65.8572 45.6819 65.7697 45.6604V45.6568Z" fill="white"/>
</g>
</g>
</g>
</svg>
