<svg width="272" height="225" xmlns="http://www.w3.org/2000/svg" xmlns:xlink="http://www.w3.org/1999/xlink" xml:space="preserve" overflow="hidden"><defs><clipPath id="clip0"><rect x="1488" y="1125" width="272" height="225"/></clipPath></defs><g clip-path="url(#clip0)" transform="translate(-1488 -1125)"><path d="M1533.27 1214.94 1490.46 1203.16C1488.36 1202.58 1487.42 1203.66 1488.37 1205.62L1558.31 1346.52C1559.46 1348.56 1561.61 1349.87 1564 1350 1561.69 1349.95 1559.72 1348.38 1559.19 1346.19L1533.27 1214.94Z" fill="#F46060" fill-rule="evenodd"/><path d="M1563.14 1349.93C1561.35 1349.55 1560.1 1347.94 1560.18 1346.13L1568 1181.44 1525.95 1165.25C1523.94 1164.47 1522.65 1165.55 1523.08 1167.66L1559.21 1346.2C1559.73 1348.37 1561.64 1349.92 1563.88 1350 1563.63 1350 1563.38 1349.97 1563.14 1349.93Z" fill="#FFA52E" fill-rule="evenodd"/><path d="M1572.46 1139.41C1571.71 1138.9 1570.73 1138.86 1569.94 1139.31 1569.15 1139.76 1568.7 1140.62 1568.79 1141.52L1560 1345.22C1559.92 1347.03 1561.19 1348.63 1562.99 1349 1562.17 1348.85 1561.46 1348.35 1561.06 1347.64 1560.65 1346.93 1560.59 1346.07 1560.88 1345.31L1614 1159.96 1572.46 1139.41Z" fill="#87CC25" fill-rule="evenodd"/><path d="M1559.78 1346.12 1565 1223.25 1532 1214 1558.85 1346.19C1559.37 1348.36 1561.29 1349.92 1563.54 1350 1563.28 1350 1563.02 1349.98 1562.76 1349.93 1560.96 1349.55 1559.7 1347.94 1559.78 1346.12Z" fill="#F98526" fill-rule="evenodd" fill-opacity="0.4"/><path d="M1603 1194.74 1567.04 1181 1560 1345.22C1559.92 1347.03 1561.18 1348.63 1562.98 1349 1562.17 1348.85 1561.46 1348.35 1561.05 1347.64 1560.65 1346.92 1560.58 1346.07 1560.88 1345.3L1603 1194.74Z" fill="#74B502" fill-rule="evenodd" fill-opacity="0.4"/><path d="M1757.68 1199.95 1626.7 1125.49C1625.9 1124.95 1624.88 1124.85 1623.99 1125.21 1623.1 1125.57 1622.45 1126.35 1622.25 1127.28L1561.18 1346.22C1560.89 1346.98 1560.95 1347.84 1561.36 1348.56 1561.76 1349.27 1562.47 1349.77 1563.29 1349.93 1563.55 1349.98 1563.81 1350 1564.07 1350L1701.44 1349.84C1703.76 1349.72 1705.82 1348.31 1706.74 1346.2L1759.72 1205.61C1760.48 1203.48 1759.63 1201.12 1757.68 1199.95Z" fill="#1D7FF9" fill-rule="evenodd"/><path d="M1738.73 1217.13 1636.23 1168.07C1635.73 1167.84 1635.18 1168.17 1634.98 1168.83L1632.68 1177.08C1632.48 1177.66 1632.71 1178.31 1633.25 1178.64L1735.66 1224.91C1735.94 1225.03 1736.33 1224.76 1736.52 1224.28L1738.84 1218.25C1739.11 1217.8 1739.02 1217.26 1738.73 1217.13ZM1730.19 1239.29 1627.86 1198.1C1627.59 1198.01 1627.29 1198.05 1627.05 1198.19 1626.81 1198.34 1626.65 1198.59 1626.61 1198.87L1624.46 1206.72C1624.28 1207.28 1624.52 1207.88 1625.04 1208.16L1727.36 1246.78C1727.66 1246.89 1728.03 1246.6 1728.22 1246.15L1730.44 1240.35C1730.58 1239.88 1730.48 1239.41 1730.19 1239.3L1730.19 1239.29ZM1721.99 1260.6 1619.86 1226.61C1619.6 1226.55 1619.32 1226.6 1619.1 1226.75 1618.87 1226.89 1618.72 1227.12 1618.67 1227.38L1616.59 1234.77C1616.4 1235.3 1616.66 1235.88 1617.19 1236.1L1719.24 1267.74C1719.53 1267.84 1719.91 1267.56 1720.08 1267.12L1722.23 1261.54C1722.36 1261.14 1722.28 1260.7 1721.99 1260.61L1721.99 1260.6ZM1714.09 1281.1 1612.21 1253.72C1611.67 1253.62 1611.16 1253.97 1611.05 1254.5L1609.06 1261.58C1608.97 1261.82 1608.98 1262.08 1609.09 1262.32 1609.21 1262.55 1609.41 1262.73 1609.66 1262.81L1711.43 1287.99C1711.73 1288.07 1712.09 1287.78 1712.26 1287.36L1714.33 1281.99C1714.49 1281.61 1714.39 1281.19 1714.09 1281.11L1714.09 1281.1Z" fill="#FFFFFF" fill-rule="evenodd"/></g></svg>